/* XPM */
static char * favicon_xpm[] = {
/* columns rows colors chars-per-pixel */
"32 28 221 2 ",
"   c #032F4B",
".  c #02304D",
"X  c #05314D",
"o  c #05324D",
"O  c #013251",
"+  c #033351",
"@  c #013556",
"#  c #023556",
"$  c #013657",
"%  c #01375A",
"&  c #02375B",
"*  c #03385A",
"=  c #01395D",
"-  c #013A5E",
";  c #083A5B",
":  c #163A50",
">  c #003D66",
",  c #003F67",
"<  c #023F66",
"1  c #3E3F70",
"2  c #3F3F70",
"3  c #713A6F",
"4  c #2A4555",
"5  c #344C59",
"6  c #00416A",
"7  c #00436D",
"8  c #00416E",
"9  c #00426E",
"0  c #00426F",
"q  c #00436F",
"w  c #00456E",
"e  c #00446F",
"r  c #06456D",
"t  c #1B4663",
"y  c #004370",
"u  c #004470",
"i  c #004471",
"p  c #004571",
"a  c #014571",
"s  c #024571",
"d  c #034571",
"f  c #014671",
"g  c #034771",
"h  c #004572",
"j  c #004672",
"k  c #004673",
"l  c #004773",
"z  c #034772",
"x  c #054571",
"c  c #034873",
"v  c #014D77",
"b  c #084B75",
"n  c #0A4A75",
"m  c #084B76",
"M  c #0C4B76",
"N  c #0A4C77",
"B  c #0D4D75",
"V  c #0D4C76",
"C  c #01537A",
"Z  c #00547B",
"A  c #01547B",
"S  c #14537C",
"D  c #14557E",
"F  c #2E4270",
"G  c #384270",
"H  c #3C4070",
"J  c #3D4070",
"K  c #295A75",
"L  c #275878",
"P  c #295D7D",
"I  c #3D5E70",
"U  c #7A575A",
"Y  c #79575D",
"T  c #7C575E",
"R  c #62685E",
"E  c #62695F",
"W  c #65695F",
"Q  c #4F566D",
"!  c #445C6A",
"~  c #7C5761",
"^  c #765862",
"/  c #4A616E",
"(  c #57646B",
")  c #517F6B",
"_  c #416173",
"`  c #626A64",
"'  c #E7693E",
"]  c #9C3672",
"[  c #A12C69",
"{  c #A72D69",
"}  c #AA316E",
"|  c #B43273",
" . c #B73571",
".. c #D0266E",
"X. c #D4256D",
"o. c #CE2C71",
"O. c #CB3273",
"+. c #CF3173",
"@. c #956469",
"#. c #E26A44",
"$. c #E5694A",
"%. c #E46A4A",
"&. c #E16B4F",
"*. c #7DA051",
"=. c #7DA055",
"-. c #D7D72D",
";. c #D9D72D",
":. c #D3D531",
">. c #D5D630",
",. c #D4D73D",
"<. c #83A14B",
"1. c #80A14C",
"2. c #80A04F",
"3. c #89A466",
"4. c #1F5C82",
"5. c #057881",
"6. c #086B9D",
"7. c #2B6589",
"8. c #2C6589",
"9. c #356B8D",
"0. c #356C8E",
"q. c #396F90",
"w. c #387093",
"e. c #067CAD",
"r. c #417595",
"t. c #437695",
"y. c #457897",
"u. c #487A98",
"i. c #4D7D9B",
"p. c #4C7E9E",
"a. c #5E7E90",
"s. c #068B8D",
"d. c #009983",
"f. c #039885",
"g. c #099982",
"h. c #039589",
"j. c #09948B",
"k. c #04B78A",
"l. c #07B78A",
"z. c #0EB490",
"x. c #10B692",
"c. c #0486B9",
"v. c #0787BE",
"b. c #0389BA",
"n. c #048AB9",
"m. c #0288BC",
"M. c #5D8094",
"N. c #55839F",
"B. c #6C818C",
"V. c #6B858E",
"C. c #7B868B",
"Z. c #79878E",
"A. c #648496",
"S. c #61849A",
"D. c #708794",
"F. c #788A95",
"G. c #5684A0",
"H. c #5785A2",
"J. c #5B85A1",
"K. c #5A86A1",
"L. c #5987A3",
"P. c #5B87A3",
"I. c #7D94A0",
"U. c #03A6D9",
"Y. c #02A7DA",
"T. c #03A7DC",
"R. c #03A5DE",
"E. c #02A6DE",
"W. c #878F92",
"Q. c #819199",
"!. c #8E979A",
"~. c #8A989E",
"^. c #8A989F",
"/. c #8196A1",
"(. c #8699A3",
"). c #909EA5",
"_. c #9CA1A1",
"`. c #9CA7AC",
"'. c #80A3B8",
"]. c #86A5B8",
"[. c #84A6BB",
"{. c #8AA7BA",
"}. c #8BAABE",
"|. c #A4A5A3",
" X c #A9AEAE",
".X c #AFB2B1",
"XX c #A9B2B5",
"oX c #AFB8BB",
"OX c #B0B2B1",
"+X c #B6B8B8",
"@X c #90AEC0",
"#X c #92AFC0",
"$X c #9AB3C0",
"%X c #9FB6C2",
"&X c #B1BCC0",
"*X c #ACC1CD",
"=X c #B9C5C9",
"-X c #BDC5C9",
";X c #AEC4D2",
":X c #B9CAD4",
">X c #B9CCD8",
",X c #BACED9",
"<X c #C5C9C2",
"1X c #C7CACB",
"2X c #C1C9CD",
"3X c #D0CFC6",
"4X c #C8D6DE",
"5X c #C9D8DF",
"6X c #D2D5D5",
"7X c #DBDAD1",
"8X c #E0DFD6",
"9X c #E1E0D7",
"0X c #E2E0D7",
"qX c #E3E2D9",
"wX c #CAD8E0",
"eX c #D2DEE3",
"rX c #D2DEE4",
"tX c #DEE2E3",
"yX c #D5E1E9",
"uX c #EEEFEC",
"iX c None",
/* pixels */
"iXiX9X9X9X9X9X9X9X9X9X9X9X9X9X9X9X9X9X9X9X9X9X9X9X9X9X9X9X9XiXiX",
"iXiX7X7X7X7X7X7X7X7X7X7X7X7X7X7X7X7X7X7X7X7X7X7X7X7X7X7X7X7XiXiX",
"iXiX3X3X3X3X3X3X3X3X3X3X3X3X3X3X3X3X3X3X3X3X3X3X3X3X3X3X3X3XiXiX",
"iXiX8X8X8X8X8X8X8X8X8X8X8X8X8X8X8X8X8X8X8X8X8X8X8X8X8X8X8X8XiXiX",
"iXiX0X0X0X0X0X0X0X0X0X0X0X0X0X0X0X0X0X0X0X0X0X0X0X0X0X0X0X0XiXiX",
"iXiXV.V.V.V.V.V.V.V.V.V.V.V.V.V.V.V.V.V.V.V.V.V.V.V.V.V.V.V.iXiX",
"iXiXe e e e e e e e e e e e e e e e e e e e e e e e e e e e iXiX",
"iXiXG H J 1 2 F a p p p p p p p p p p p p p p p p p p p p p iXiX",
"iXiXO.+.o...X.] x p p p p p p p p p p p p p p p p p p p p p iXiX",
"iXiX .| } { [ 3 d p p p p p p p p p p p p p p p p p p p p p iXiX",
"iXiXT ~ Y U ^ Q s 9 u i 8 q p q 8 0 p y 8 0 q 8 y 9 p u 0 p iXiX",
"iXiX$.%.#.' &.@.V i.S M G.q.0 0.K.r.y 8.K.t.9.N.7.u.c 4.y.z iXiX",
"iXiXW W E R ` I r Z.$XH.6X_ r.&X( XXL.[.1X-X).tX'.rXN P.wXb iXiX",
"iXiX-.;.>.:.,.3.g & !.uX/ > ,X+XD._.=X#X*X:X{.eX'.rXn J.5Xb iXiX",
"iXiX1.<.2.*.=.) f w.oX|.%XD /.OX5 4 : ].;X>X}.yXS.2Xp.@X4Xm iXiX",
"iXiXd.f.g.h.j.5.B ^.! t .Xa.; C.~.Q.P M.I.(.A.`.L F. XW.B.b iXiX",
"iXiXk.k.l.x.z.s.w + , 7 . * h % X o < - $ @ = O 6 %   # = e iXiX",
"iXiXZ Z C A A v p k h p l j p j l l h j k k j k h j l k j p iXiX",
"iXiXR.E.U.Y.T.e.j p p p p p p p p p p p p p p p p p p p p p iXiX",
"iXiXv.m.b.n.c.6.j p p p p p p p p p p p p p p p p p p p p p iXiX",
"iXiXh h h h h h i i i i i i i i i i i i i i i i i i i i i i iXiX",
"iXiXK K K K K K K K K K K K K K K K K K K K K K K K K K K K iXiX",
"iXiX<X<X<X<X<X<X<X<X<X<X<X<X<X<X<X<X<X<X<X<X<X<X<X<X<X<X<X<XiXiX",
"iXiXqXqXqXqXqXqXqXqXqXqXqXqXqXqXqXqXqXqXqXqXqXqXqXqXqXqXqXqXiXiX",
"iXiX8X8X8X8X8X8X8X8X8X8X8X8X8X8X8X8X8X8X8X8X8X8X8X8X8X8X8X8XiXiX",
"iXiX3X3X3X3X3X3X3X3X3X3X3X3X3X3X3X3X3X3X3X3X3X3X3X3X3X3X3X3XiXiX",
"iXiX7X7X7X7X7X7X7X7X7X7X7X7X7X7X7X7X7X7X7X7X7X7X7X7X7X7X7X7XiXiX",
"iXiX9X9X9X9X9X9X9X9X9X9X9X9X9X9X9X9X9X9X9X9X9X9X9X9X9X9X9X9XiXiX"
};
