/* XPM */
static char * favicon_xpm[] = {
"32 28 3 1",
" 	c None",
".	c #FE0000",
"+	c #FF0000",
"                                ",
"                     +          ",
"       ++           +           ",
"         +       +++            ",
"         ++     +               ",
"           +   +                ",
"            +++                 ",
"           + +                  ",
"          +   +                 ",
"         +     +                ",
"         +      +               ",
"         +      +               ",
"        +        +              ",
"       +         +              ",
"      +           +             ",
"                                ",
"      ++++++ +     +  +   +     ",
"       +     +     +  +   +     ",
"       +  +  ++   ++  +   +     ",
"       ++++  + + + +  +   +     ",
"       +  +  +  +  +  +   +     ",
"       +     +     +  +   +     ",
"      ++++++ ++   ++  +++++     ",
"                                ",
"                                ",
"                                ",
"                                ",
"                                "};
