/* XPM */
static char *favicon_xpm[] = {
/* columns rows colors chars-per-pixel */
"48 48 62 1 ",
"  c #000100",
". c #004571",
"X c #E31567",
"o c #8F376E",
"O c #893B6D",
"+ c #A73364",
"@ c #DE226B",
"# c #813F6F",
"$ c #D92771",
"% c #BC3465",
"& c #E72772",
"* c #CD3574",
"= c #D53376",
"- c #D43A71",
"; c #D63B6D",
": c #0F74AC",
"> c #0F837D",
", c #586F73",
"< c #0088C0",
"1 c #0989BA",
"2 c #1187C5",
"3 c #9B6875",
"4 c #00978E",
"5 c #0E988A",
"6 c #009E85",
"7 c #009C9F",
"8 c #04A179",
"9 c #AD726A",
"0 c #D7694B",
"q c #DA6A47",
"w c #169F7E",
"e c #E1684F",
"r c #D36C51",
"t c #DB6A55",
"y c #C67066",
"u c #EC6D35",
"i c #F66B32",
"p c #00AA99",
"a c #F06C40",
"s c #09B4EA",
"d c #819E71",
"f c #00B8F5",
"g c #00BBE9",
"h c #03C68C",
"j c #19BF9A",
"k c #15CA99",
"l c #05D196",
"z c #09D28E",
"x c #98AF6F",
"c c #BCBE46",
"v c #C0C03E",
"b c #C7C13E",
"n c #BBC565",
"m c #C6D557",
"M c #CDCCC3",
"N c #CFDA44",
"B c #D2DE3B",
"V c #DBDD36",
"C c #ECE643",
"Z c #F2EB1A",
"A c #E1E0D7",
"S c #FEFFFC",
/* pixels */
"AAAAAAAAAAAAAAAAAAAAAAAAAAAAAAAAAAAAAAAAAAAAAAAA",
"AAAAAAAAAAAAAAAAAAAAAAAAAAAAAAAAAAAAAAAAAAAAAAAA",
"AAAAAAAAAAAAAAAAAAAAAAAAAAAAAAAAAAAAAAAAAAAAAAAA",
"MMMMMMMMMMMMMMMMMMMMMMMMMMMMMMMMMMMMMMMMMMMMMMMM",
"MMMMMMMMMMMMMMMMMMMMMMMMMMMMMMMMMMMMMMMMMMMMMMMM",
"AAAAAAAAAAAAAAAAAAAAAAAAAAAAAAAAAAAAAAAAAAAAAAAA",
"AAAAAAAAAAAAAAAAAAAAAAAAAAAAAAAAAAAAAAAAAAAAAAAA",
"AAAAAAAAAAAAAAAAAAAAAAAAAAAAAAAAAAAAAAAAAAAAAAAA",
"AAAAAAAAAAAAAAAAAAAAAAAAAAAAAAAAAAAAAAAAAAAAAAAA",
",,,,,,,,,,,,,,,,,,,,,,,,,,,,,,,,,,,,,,,,,,,,,,,,",
"................................................",
"................................................",
"................................................",
"##ooOoooo#......................................",
"*===$$$@$*......................................",
"&&&&$@XX$*......................................",
";-**%%%++O......................................",
"................................................",
"0ett0qqty9......................................",
"aaaauiiaty......................................",
"tttrr00ty3..SS...SSS...SSSS...SSSS.SSS.SS...SS..",
"............ SS..SS ..SS  SS..SS SS SS.SS...SS..",
"vbbbccccnd... SSSS ..SS .. SS.SS.SS.SS.SS...SS..",
"ZZZZZZZZCn.... SS ...SSSSSSSS.SS.SS.SS.SS...SS..",
"BVVVNNNBmx....SSSS...SS      .SS.SS.SS.SS...SS..",
".............SS  SS.. SS......SS.SS.SS. SS.SSS..",
"866ww6455>..SS ..SSS.. SSSSS..SS.SS.SS..SSSS S..",
"zllzzkkkkp..  ...   ...     ..  .  .  ..    . ..",
"hhhhhkkhj7......................................",
"................................................",
"................................................",
"ffffssffs1......................................",
"sssgggggs1......................................",
"2<<<111<::......................................",
"................................................",
"................................................",
"................................................",
",,,,,,,,,,,,,,,,,,,,,,,,,,,,,,,,,,,,,,,,,,,,,,,,",
"AAAAAAAAAAAAAAAAAAAAAAAAAAAAAAAAAAAAAAAAAAAAAAAA",
"AAAAAAAAAAAAAAAAAAAAAAAAAAAAAAAAAAAAAAAAAAAAAAAA",
"AAAAAAAAAAAAAAAAAAAAAAAAAAAAAAAAAAAAAAAAAAAAAAAA",
"AAAAAAAAAAAAAAAAAAAAAAAAAAAAAAAAAAAAAAAAAAAAAAAA",
"AAAAAAAAAAAAAAAAAAAAAAAAAAAAAAAAAAAAAAAAAAAAAAAA",
"MMMMMMMMMMMMMMMMMMMMMMMMMMMMMMMMMMMMMMMMMMMMMMMM",
"MMMMMMMMMMMMMMMMMMMMMMMMMMMMMMMMMMMMMMMMMMMMMMMM",
"AAAAAAAAAAAAAAAAAAAAAAAAAAAAAAAAAAAAAAAAAAAAAAAA",
"AAAAAAAAAAAAAAAAAAAAAAAAAAAAAAAAAAAAAAAAAAAAAAAA",
"AAAAAAAAAAAAAAAAAAAAAAAAAAAAAAAAAAAAAAAAAAAAAAAA"
};
